<?xml version="1.0" standalone="no"?>
<!DOCTYPE svg PUBLIC "-//W3C//DTD SVG 20010904//EN"
 "http://www.w3.org/TR/2001/REC-SVG-20010904/DTD/svg10.dtd">
<svg version="1.0" xmlns="http://www.w3.org/2000/svg"
 width="298.000000pt" height="300.000000pt" viewBox="0 0 298.000000 300.000000"
 preserveAspectRatio="xMidYMid meet">
<metadata>
Created by potrace 1.16, written by Peter Selinger 2001-2019
</metadata>
<g transform="translate(0.000000,300.000000) scale(0.100000,-0.100000)"
fill="#000000" stroke="none">
<path d="M1310 2921 c-8 -5 -17 -8 -22 -5 -10 7 -127 -22 -217 -52 -122 -42
-373 -175 -358 -190 3 -3 29 10 58 29 137 87 304 153 489 193 134 29 440 27
580 -4 182 -41 330 -103 479 -199 46 -30 86 -52 88 -49 7 7 -149 107 -234 150
-40 20 -73 34 -73 31 0 -3 -12 3 -27 12 -15 10 -27 17 -28 15 0 -2 -13 2 -29
8 -16 6 -36 12 -45 13 -9 1 -22 6 -28 10 -11 7 -33 12 -93 21 -9 1 -22 6 -30
11 -20 13 -491 19 -510 6z"/>
<path d="M1090 2634 c-76 -26 -281 -130 -359 -182 -273 -184 -456 -427 -502
-666 -17 -91 22 -168 103 -201 58 -23 192 -25 233 -2 49 26 85 66 85 93 0 34
-15 61 -66 116 -49 52 -53 67 -26 91 27 25 63 21 115 -14 82 -54 109 -119 82
-199 -40 -121 -158 -207 -314 -231 -174 -26 -318 19 -377 119 -17 28 -34 69
-38 89 -18 110 3 264 50 372 13 29 24 56 24 60 0 12 -70 -117 -73 -135 -1 -11
-7 -26 -12 -34 -14 -22 -19 -297 -6 -340 6 -20 26 -54 44 -75 31 -37 34 -48
45 -150 37 -341 190 -647 449 -895 199 -191 455 -325 713 -374 113 -22 447
-22 559 -1 172 33 363 114 527 223 l89 60 55 -15 c87 -25 256 -22 365 5 123
32 120 31 107 44 -8 8 -40 5 -119 -12 -177 -37 -327 -19 -489 61 -156 76 -263
204 -323 383 -17 54 -34 125 -38 159 -10 118 35 279 136 483 36 73 61 128 55
121 -6 -7 -161 -212 -344 -457 -183 -245 -341 -453 -352 -462 -51 -45 -144 -5
-207 88 -30 44 -32 54 -28 104 8 86 43 181 137 365 104 204 192 354 315 536
91 133 113 174 101 187 -9 8 -114 -96 -185 -183 -95 -115 -430 -563 -494 -660
-111 -168 -207 -391 -207 -479 0 -109 -105 -128 -198 -33 -67 68 -86 123 -86
247 0 158 25 239 170 535 99 204 248 478 409 750 128 216 164 301 165 382 0
92 -65 143 -182 143 -35 -1 -83 -8 -108 -16z"/>
<path d="M1843 2184 c-18 -9 -47 -30 -66 -48 -67 -61 -362 -393 -446 -501 -68
-87 -76 -96 -67 -70 13 37 -10 1 -52 -80 -23 -44 -34 -69 -24 -55 170 245 570
698 653 740 83 43 177 13 233 -73 21 -33 26 -53 26 -102 0 -60 -3 -67 -86
-206 -85 -141 -339 -581 -364 -628 -9 -18 -9 -22 0 -16 8 5 11 3 8 -6 -3 -8
-10 -13 -16 -12 -10 2 -92 -134 -92 -153 0 -5 15 14 34 41 18 28 32 53 30 56
-2 4 3 9 11 13 9 3 12 12 8 22 -4 11 -2 15 4 11 6 -4 45 41 89 101 219 299
565 700 636 738 97 51 238 -33 238 -141 0 -55 -9 -74 -106 -230 -164 -263
-238 -443 -236 -580 1 -152 61 -312 152 -405 44 -45 105 -89 143 -103 32 -12
17 1 -36 31 -67 38 -148 126 -182 198 -37 77 -66 197 -67 274 -1 132 84 345
228 570 97 152 114 186 114 239 0 128 -151 213 -263 148 -68 -40 -406 -431
-595 -689 -47 -65 -88 -116 -90 -113 -5 5 158 290 311 545 135 224 140 235
139 296 -1 144 -149 247 -269 188z"/>
</g>
</svg>
