<?xml version="1.0" standalone="no"?>
<!DOCTYPE svg PUBLIC "-//W3C//DTD SVG 20010904//EN"
 "http://www.w3.org/TR/2001/REC-SVG-20010904/DTD/svg10.dtd">
<svg version="1.0" xmlns="http://www.w3.org/2000/svg"
 width="298.000000pt" height="300.000000pt" viewBox="0 0 298.000000 300.000000"
 preserveAspectRatio="xMidYMid meet">
<metadata>
Created by potrace 1.16, written by Peter Selinger 2001-2019
</metadata>
<g transform="translate(0.000000,300.000000) scale(0.100000,-0.100000)"
fill="#000000" stroke="none">
<path d="M302 2618 c-17 -22 -50 -93 -92 -198 -107 -270 -159 -581 -136 -815
8 -77 28 -198 41 -250 80 -316 278 -572 518 -671 70 -29 187 -35 254 -14 104
33 209 122 250 212 30 64 45 137 38 180 -8 47 7 56 62 37 21 -7 41 -13 45 -14
3 0 9 -2 12 -5 7 -8 92 -4 105 4 6 4 11 5 11 2 0 -3 11 -1 25 4 19 7 39 4 87
-17 163 -69 283 -184 368 -354 17 -32 30 -65 30 -72 0 -14 61 -37 99 -37 11 0
21 -3 21 -7 0 -9 162 -7 200 2 14 4 34 8 45 10 82 14 234 99 336 187 121 103
306 370 283 406 -14 22 -170 103 -240 126 -32 10 -70 23 -83 30 -40 18 -278
14 -323 -6 l-38 -17 0 77 c0 123 -54 428 -80 456 -12 12 -148 -54 -224 -108
-34 -24 -84 -68 -112 -98 l-52 -54 -17 29 c-50 84 -184 246 -299 362 -73 73
-100 104 -62 71 l67 -59 107 12 c59 6 170 16 247 21 77 6 164 13 193 16 l52 6
25 -53 c14 -30 23 -43 19 -29 -17 73 -212 426 -268 486 -6 7 -33 41 -61 77
-27 37 -54 68 -60 70 -9 4 -125 -66 -190 -115 -44 -33 -237 -226 -272 -273
l-31 -40 -34 25 c-46 34 -164 111 -218 142 -113 65 -344 173 -435 203 -22 7
-73 25 -113 39 -85 30 -86 30 -100 14z"/>
<path d="M2363 1927 c-3 -4 -12 -7 -21 -6 -10 1 -20 0 -24 -1 -10 -3 -16 -4
-58 -14 -19 -4 -49 -12 -66 -18 l-31 -11 36 -31 c20 -17 74 -65 121 -106 47
-41 127 -111 178 -154 77 -67 92 -85 93 -110 1 -17 6 0 11 39 6 38 13 72 16
75 10 7 9 270 0 270 -5 0 -8 16 -8 35 0 40 10 37 -143 39 -55 0 -101 -3 -104
-7z"/>
</g>
</svg>
