<?xml version="1.0" standalone="no"?>
<!DOCTYPE svg PUBLIC "-//W3C//DTD SVG 20010904//EN"
 "http://www.w3.org/TR/2001/REC-SVG-20010904/DTD/svg10.dtd">
<svg version="1.0" xmlns="http://www.w3.org/2000/svg"
 width="298.000000pt" height="300.000000pt" viewBox="0 0 298.000000 300.000000"
 preserveAspectRatio="xMidYMid meet">
<metadata>
Created by potrace 1.16, written by Peter Selinger 2001-2019
</metadata>
<g transform="translate(0.000000,300.000000) scale(0.100000,-0.100000)"
fill="#000000" stroke="none">
<path d="M1187 2956 c3 -5 -8 -7 -25 -4 -17 2 -29 1 -27 -3 6 -8 -54 -21 -66
-13 -5 3 -9 0 -9 -6 0 -7 -8 -9 -21 -5 -16 5 -19 4 -14 -6 6 -9 2 -11 -13 -7
-14 4 -20 2 -15 -5 4 -6 0 -8 -10 -4 -9 3 -18 1 -21 -6 -3 -9 -7 -8 -14 2 -8
11 -14 9 -31 -8 -11 -11 -21 -16 -21 -10 0 18 -162 -74 -208 -118 -33 -31 -43
-48 -39 -62 4 -17 -9 -28 -78 -66 -46 -25 -110 -65 -143 -90 -68 -51 -175
-186 -245 -310 -46 -80 -127 -272 -127 -299 0 -9 10 -24 22 -36 32 -30 120
-26 264 10 231 58 377 156 417 280 23 71 23 188 0 197 -21 8 -11 12 167 64
169 50 376 93 550 114 74 10 137 19 139 21 2 2 3 27 3 57 -1 98 -51 175 -145
223 -46 24 -52 24 -130 14 -104 -14 -289 -55 -363 -80 -32 -11 -59 -19 -60
-17 -2 2 21 18 52 37 67 40 162 68 274 79 l85 8 -70 3 -70 3 59 6 58 6 -21 20
c-22 19 -115 30 -104 11z"/>
<path d="M2044 2810 c61 -63 89 -116 106 -198 l11 -51 72 -16 c99 -23 180 -51
260 -91 66 -33 68 -33 62 -12 -16 53 -74 146 -123 199 -89 96 -207 163 -371
208 l-73 20 56 -59z"/>
<path d="M1625 2560 c-9 -43 -36 -112 -41 -107 -3 2 3 21 11 41 9 21 14 43 12
49 -2 7 -12 -12 -21 -40 -10 -29 -14 -58 -10 -64 4 -8 3 -9 -4 -5 -13 8 -66
-89 -57 -105 4 -5 1 -8 -6 -7 -6 2 -14 -3 -17 -11 -3 -9 0 -11 9 -6 8 5 11 4
6 -1 -5 -5 -14 -9 -20 -9 -5 0 -12 -6 -15 -14 -3 -9 0 -11 9 -6 8 5 11 4 6 -1
-5 -5 -12 -9 -15 -9 -13 0 -32 -16 -32 -26 0 -6 6 -7 13 -3 7 4 9 3 4 -2 -5
-5 -12 -9 -15 -9 -13 0 -32 -16 -32 -26 0 -6 6 -7 13 -3 7 4 9 3 4 -2 -5 -5
-13 -9 -18 -9 -5 0 -28 -21 -51 -47 -42 -47 -45 -48 -158 -73 -464 -102 -920
-300 -1113 -483 -75 -72 -87 -96 -87 -175 0 -171 98 -518 165 -586 83 -84 435
17 770 221 179 110 428 293 601 445 56 48 67 53 130 62 131 19 335 24 462 12
106 -11 196 -28 154 -30 -7 -1 -10 -6 -6 -13 4 -6 3 -8 -4 -4 -13 8 -44 -33
-35 -47 3 -6 1 -7 -4 -4 -6 4 -36 -23 -66 -61 -31 -37 -116 -126 -189 -198
l-133 -131 -100 -12 c-136 -16 -273 -45 -413 -87 -474 -143 -918 -424 -871
-551 23 -63 300 -248 468 -314 103 -41 105 -41 175 -30 214 31 578 211 879
433 l68 50 44 -12 c25 -7 61 -27 82 -45 33 -28 38 -38 37 -74 -2 -58 -24 -84
-127 -153 -220 -144 -467 -238 -627 -238 -50 0 -74 -15 -49 -31 8 -5 64 -9
124 -9 528 0 1042 325 1288 816 47 93 121 293 112 302 -2 3 -7 -4 -11 -14 -18
-57 -25 -75 -49 -142 -15 -40 -29 -71 -31 -69 -2 2 5 26 16 54 14 37 16 53 8
61 -9 9 -23 -6 -56 -54 -24 -36 -46 -63 -49 -60 -8 7 -33 -13 -33 -26 0 -6 8
-4 18 3 15 11 15 11 4 -1 -7 -8 -18 -15 -24 -15 -6 0 -13 -6 -16 -14 -3 -9 0
-11 9 -5 12 6 12 5 0 -9 -8 -10 -16 -15 -19 -12 -7 6 -42 -25 -42 -37 0 -5 5
-6 12 -2 7 4 8 3 4 -5 -4 -6 -11 -9 -16 -6 -5 3 -17 -6 -28 -20 l-20 -25 -7
38 c-11 60 -40 114 -83 156 l-41 39 58 71 c94 114 172 228 167 243 -3 8 -2 11
4 8 5 -3 15 6 23 21 l14 27 33 -48 c35 -50 70 -148 70 -193 0 -23 2 -24 13
-12 22 24 63 131 91 234 42 158 33 286 -29 424 -30 68 -45 78 -45 33 0 -35
-28 -172 -36 -180 -4 -3 -3 12 0 34 l7 40 -155 154 -154 154 -21 -39 c-24 -42
-24 -42 10 59 15 42 19 71 13 76 -16 16 -184 61 -284 76 -138 21 -187 20 -200
-6 -7 -11 -14 -18 -17 -16 -2 3 0 14 6 25 9 17 -17 47 -203 238 l-213 219 -8
-35z"/>
</g>
</svg>
