<?xml version="1.0" standalone="no"?>
<!DOCTYPE svg PUBLIC "-//W3C//DTD SVG 20010904//EN"
 "http://www.w3.org/TR/2001/REC-SVG-20010904/DTD/svg10.dtd">
<svg version="1.0" xmlns="http://www.w3.org/2000/svg"
 width="298.000000pt" height="300.000000pt" viewBox="0 0 298.000000 300.000000"
 preserveAspectRatio="xMidYMid meet">
<metadata>
Created by potrace 1.16, written by Peter Selinger 2001-2019
</metadata>
<g transform="translate(0.000000,300.000000) scale(0.100000,-0.100000)"
fill="#000000" stroke="none">
<path d="M1095 2850 c-146 -30 -268 -78 -374 -149 -11 -7 -7 -24 19 -92 18
-46 34 -86 35 -88 2 -1 20 29 39 68 20 39 38 71 41 71 5 0 -3 -21 -34 -94 -12
-27 -20 -50 -18 -52 2 -2 69 18 148 46 79 27 146 50 149 50 14 -2 -59 -33
-173 -75 l-127 -47 67 -33 c100 -48 121 -71 28 -29 -44 20 -86 38 -93 41 -8 3
-3 -21 14 -68 31 -85 28 -80 46 -83 7 -2 20 -6 28 -9 8 -3 47 -18 85 -32 59
-22 203 -91 305 -147 38 -21 183 -117 203 -135 9 -9 17 -12 17 -8 0 5 7 0 15
-11 8 -10 15 -16 15 -12 0 3 19 -11 42 -33 23 -21 43 -37 45 -35 2 2 20 -12
40 -30 20 -19 42 -34 49 -34 7 0 15 -5 17 -10 3 -6 4 -5 3 2 -2 12 84 81 133
108 12 6 30 18 39 26 9 9 69 51 132 95 63 44 122 85 130 92 8 7 32 23 53 36
21 12 44 30 53 38 13 14 16 14 28 -2 7 -10 11 -28 9 -39 -3 -18 -2 -18 7 2 8
18 6 27 -10 44 -22 24 -25 34 -11 43 6 3 9 14 8 25 -1 10 -4 17 -8 14 -4 -2
-10 3 -13 12 -9 24 -7 31 5 14 9 -12 10 -11 4 5 -22 63 -28 75 -36 75 -5 0 -9
8 -9 19 0 10 -11 30 -25 45 -13 14 -24 27 -24 29 2 12 -16 37 -27 37 -8 0 -14
6 -14 14 0 16 -89 101 -150 143 -107 72 -251 127 -419 158 -118 21 -368 19
-486 -5z"/>
<path d="M1900 2860 c0 -6 34 -26 75 -46 41 -20 81 -41 88 -48 6 -6 28 -23 47
-36 64 -46 165 -139 173 -160 5 -13 6 -13 6 1 1 8 -4 20 -11 27 -9 9 0 12 40
12 30 0 52 -4 52 -11 0 -5 5 -7 11 -3 6 3 -3 14 -22 26 -19 11 -39 28 -46 37
-7 9 -13 12 -13 7 0 -5 -8 0 -17 11 -26 29 -171 110 -258 144 -11 4 -42 17
-69 28 -56 24 -56 24 -56 11z"/>
<path d="M641 2645 c-76 -61 -196 -180 -251 -251 -49 -62 -102 -145 -97 -151
4 -3 7 -1 7 6 0 7 4 10 8 7 5 -3 18 2 28 12 11 9 26 18 34 20 8 2 29 10 45 17
17 7 44 16 60 19 17 4 41 9 55 11 14 3 57 7 95 8 l70 3 28 58 c16 32 27 60 25
62 -3 2 -62 -17 -133 -41 -70 -25 -132 -44 -138 -42 -8 2 61 29 252 99 22 8
18 12 -49 44 -91 43 -87 55 5 14 37 -17 69 -29 70 -28 5 5 -58 168 -64 168 -3
0 -26 -16 -50 -35z"/>
<path d="M2776 2059 c-3 -8 -7 -34 -10 -59 -9 -85 -61 -190 -131 -268 -48 -53
-130 -109 -152 -104 -7 2 -13 -2 -13 -8 0 -13 -36 -65 -68 -98 -25 -26 -25
-25 13 -127 27 -71 39 -75 137 -50 156 39 245 151 284 353 17 90 19 222 3 222
-6 0 -9 6 -6 13 3 8 -1 27 -8 43 -16 36 -28 67 -29 76 -2 15 -16 20 -20 7z"/>
<path d="M427 1730 c-107 -27 -198 -106 -247 -213 -27 -59 -59 -213 -61 -287
0 -43 11 -100 20 -100 4 0 7 -8 8 -17 1 -10 13 -44 27 -76 14 -32 26 -64 26
-72 0 -8 4 -15 9 -15 5 0 14 -14 21 -30 7 -17 15 -29 17 -26 2 2 -8 27 -22 55
-15 27 -24 54 -22 58 3 4 7 31 11 58 3 28 11 66 17 85 13 37 81 153 108 184
25 30 132 106 141 101 4 -2 19 18 34 46 15 27 36 55 47 62 10 6 19 16 19 20 0
10 59 67 69 67 4 0 16 8 27 18 10 10 34 25 52 32 17 8 32 18 32 21 0 25 -259
47 -333 29z"/>
<path d="M2338 1457 c-14 -12 -35 -29 -45 -37 -10 -9 -33 -22 -50 -29 -18 -7
-33 -17 -33 -21 0 -10 75 -27 155 -36 l54 -7 -8 29 c-13 40 -43 124 -44 124
-1 0 -14 -10 -29 -23z"/>
<path d="M907 1346 c-94 -35 -189 -133 -214 -221 -40 -141 -28 -291 32 -423
92 -202 244 -328 496 -413 84 -28 113 -35 162 -38 10 0 16 -5 12 -11 -3 -5 13
-14 36 -20 43 -12 103 -9 174 8 34 8 36 10 12 11 -16 0 -36 -3 -45 -7 -9 -5
-30 -5 -47 -1 -29 6 -29 7 -4 8 14 0 45 14 67 31 23 17 46 30 52 30 5 0 10 5
10 10 0 6 5 10 10 10 11 0 24 10 61 42 10 10 22 18 25 18 5 0 143 96 171 120
7 5 17 10 23 10 5 0 10 4 10 8 0 4 15 16 33 27 17 10 74 49 124 87 51 37 97
68 103 68 5 0 10 5 10 10 0 6 6 10 13 10 6 0 21 7 31 15 18 14 17 14 -10 15
-64 0 -94 5 -94 13 0 5 -6 7 -14 4 -8 -3 -17 -3 -21 1 -4 4 -10 7 -13 8 -36 6
-73 18 -78 25 -3 5 -12 9 -21 9 -20 0 -235 108 -343 173 -47 28 -158 106 -247
173 -206 155 -288 196 -398 201 -52 2 -93 -2 -118 -11z"/>
<path d="M590 469 c0 -5 7 -9 15 -9 8 0 15 -4 15 -8 0 -15 159 -113 263 -162
128 -60 172 -73 87 -25 -72 41 -200 140 -200 155 0 6 -7 10 -16 10 -8 0 -13 3
-11 8 3 4 -5 16 -16 27 l-20 20 13 -24 c10 -19 10 -22 -2 -15 -7 5 -23 7 -34
6 -12 -2 -38 4 -58 12 -20 8 -36 11 -36 5z"/>
</g>
</svg>
