<?xml version="1.0" standalone="no"?>
<!DOCTYPE svg PUBLIC "-//W3C//DTD SVG 20010904//EN"
 "http://www.w3.org/TR/2001/REC-SVG-20010904/DTD/svg10.dtd">
<svg version="1.0" xmlns="http://www.w3.org/2000/svg"
 width="298.000000pt" height="300.000000pt" viewBox="0 0 298.000000 300.000000"
 preserveAspectRatio="xMidYMid meet">
<metadata>
Created by potrace 1.16, written by Peter Selinger 2001-2019
</metadata>
<g transform="translate(0.000000,300.000000) scale(0.100000,-0.100000)"
fill="#000000" stroke="none">
<path d="M1315 2884 c-16 -3 -75 -14 -129 -25 -471 -98 -876 -460 -1031 -924
-48 -141 -65 -259 -65 -439 0 -108 5 -192 16 -247 107 -567 554 -1017 1114
-1123 125 -24 404 -22 530 4 574 117 1009 569 1105 1149 21 126 16 383 -10
501 -105 475 -449 870 -900 1030 -159 56 -243 71 -430 75 -93 2 -183 1 -200
-1z m386 -150 c255 -48 479 -165 660 -344 92 -91 142 -155 207 -265 154 -261
206 -610 137 -909 -97 -417 -405 -763 -805 -904 -154 -54 -237 -67 -430 -67
-160 0 -185 3 -285 29 -702 181 -1101 858 -919 1556 31 121 125 314 202 416
191 253 480 434 782 489 106 19 348 19 451 -1z"/>
<path d="M1080 2093 c-69 -36 -99 -118 -66 -181 63 -122 237 -100 262 33 20
107 -100 198 -196 148z"/>
<path d="M1430 2093 c-88 -45 -106 -152 -38 -220 108 -107 284 11 222 148 -33
75 -116 107 -184 72z"/>
<path d="M1765 2096 c-108 -49 -114 -201 -11 -250 65 -31 135 -14 175 42 31
44 35 78 16 127 -28 76 -112 113 -180 81z"/>
<path d="M1425 1740 c-57 -23 -96 -103 -81 -164 10 -40 54 -85 96 -97 79 -24
166 35 177 119 11 98 -100 181 -192 142z"/>
<path d="M1425 1410 c-72 -30 -106 -133 -66 -197 73 -115 241 -79 258 55 11
98 -100 181 -192 142z"/>
<path d="M1406 1051 c-41 -28 -66 -70 -66 -116 0 -78 59 -135 140 -135 53 0
93 23 119 70 36 64 23 122 -39 174 -39 32 -110 36 -154 7z"/>
</g>
</svg>
